<?xml version="1.0" encoding="utf-8"?>
<!-- Generator: Adobe Illustrator 23.0.2, SVG Export Plug-In . SVG Version: 6.00 Build 0)  -->
<svg version="1.1" id="Layer_1" xmlns="http://www.w3.org/2000/svg" xmlns:xlink="http://www.w3.org/1999/xlink" x="0px" y="0px"
	 viewBox="0 0 32 32" style="enable-background:new 0 0 32 32;" xml:space="preserve">
<style type="text/css">
	.st0{fill:#0C2D48;}
	.st1{fill:#28C628;}
</style>
<circle class="st0" cx="16" cy="16" r="16"/>
<path class="st1" d="M16.5,20.8l5.7-5.7c0.4-0.4,0.2-1-0.2-1.4l-1.4-1.4c-0.4-0.4-0.9-0.4-1.2,0l-3.7,3.6l-3.6-3.6
	c-0.4-0.4-0.9-0.4-1.3,0l-1.4,1.4c-0.4,0.4-0.6,1-0.2,1.4l5.7,5.7C15.3,21.2,16.1,21.2,16.5,20.8z M10.1,14.5l1.4-1.4l4.2,4.2
	l4.2-4.2l1.4,1.4l-5.7,5.7L10.1,14.5z"/>
</svg>
